<?xml version="1.0" standalone="no"?>
<!DOCTYPE svg PUBLIC "-//W3C//DTD SVG 20010904//EN"
 "http://www.w3.org/TR/2001/REC-SVG-20010904/DTD/svg10.dtd">
<svg version="1.0" xmlns="http://www.w3.org/2000/svg"
 width="936.000000pt" height="1280.000000pt" viewBox="0 0 936.000000 1280.000000"
 preserveAspectRatio="xMidYMid meet">
<g transform="translate(0.000000,1280.000000) scale(0.100000,-0.100000)"
fill="#000000" stroke="none">
<path d="M4555 12790 c-22 -5 -83 -16 -135 -25 -412 -75 -780 -347 -980 -727
-104 -198 -148 -364 -157 -593 -4 -113 -1 -178 11 -264 89 -599 548 -1070
1150 -1178 121 -22 351 -22 472 0 605 109 1069 589 1153 1191 15 108 14 293
-4 406 -67 444 -342 824 -747 1035 -136 70 -260 110 -434 140 -143 25 -254 30
-329 15z"/>
<path d="M6511 9694 c-22 -16 -23 -21 -16 -83 4 -36 8 -88 9 -116 1 -45 -1
-50 -23 -53 l-23 -4 7 -141 c4 -101 20 -216 52 -396 l46 -254 -29 -24 c-56
-45 -66 -42 -159 42 -93 86 -117 125 -135 226 -6 37 -21 81 -31 98 -20 33 -81
66 -105 57 -25 -10 -54 -70 -54 -112 0 -60 11 -87 128 -326 69 -141 103 -221
96 -228 -5 -5 -34 -12 -64 -15 l-55 -7 -229 146 c-126 80 -248 151 -270 157
-46 13 -169 16 -203 5 -29 -9 -30 -38 -2 -82 33 -53 188 -193 304 -274 59 -41
287 -228 506 -415 l398 -340 411 -478 411 -478 365 -589 c201 -324 363 -593
360 -598 -2 -4 -112 -52 -244 -106 l-239 -97 -163 -242 c-219 -325 -207 -310
-293 -343 -39 -15 -247 -94 -460 -175 -214 -82 -392 -149 -396 -149 -4 0 -99
48 -210 106 -187 98 -204 106 -227 94 -13 -8 -26 -11 -29 -8 -10 9 -25 112
-25 168 0 77 50 243 106 350 54 105 126 188 199 229 96 54 145 149 145 282 0
41 -8 92 -21 131 -15 47 -23 109 -30 243 -8 146 -16 201 -39 292 -40 149 -73
238 -132 357 -95 192 -178 290 -326 387 -85 56 -152 83 -277 112 -121 28 -378
30 -509 4 -165 -33 -324 -104 -423 -188 -94 -80 -188 -279 -263 -556 -85 -313
-82 -275 -71 -711 l10 -387 46 -138 c25 -76 59 -211 76 -300 17 -89 41 -203
55 -253 26 -99 31 -176 12 -192 -9 -7 -135 9 -404 49 l-391 59 -679 240 c-373
133 -693 251 -710 263 -17 12 -76 59 -130 105 -152 127 -268 207 -391 269
-107 54 -116 57 -190 57 -43 1 -110 -3 -149 -7 -69 -9 -70 -8 -82 18 -17 38
-15 65 19 234 30 149 34 160 143 391 199 419 541 942 834 1272 l171 194 138
85 c76 46 302 166 503 267 312 157 381 196 478 269 132 99 147 118 138 169 -6
28 -14 38 -41 50 -44 18 -106 18 -150 0 -18 -8 -94 -56 -167 -107 -161 -111
-242 -138 -295 -96 -21 16 -16 29 57 142 50 79 88 125 139 169 90 78 263 301
414 532 117 181 130 211 107 255 -15 26 -68 52 -94 45 -44 -11 -78 -50 -265
-314 -104 -147 -209 -289 -234 -316 -42 -48 -45 -50 -78 -40 -32 9 -34 13 -33
51 0 33 15 64 76 159 104 165 304 555 324 634 27 105 -2 163 -90 177 -30 5
-37 2 -45 -18 -5 -13 -31 -76 -57 -139 -31 -78 -97 -198 -201 -370 -181 -298
-193 -315 -221 -306 -34 11 -35 41 -6 144 36 129 153 448 198 542 43 89 45
112 10 139 -60 47 -138 17 -183 -71 -62 -124 -204 -492 -228 -593 -30 -128
-37 -145 -63 -145 -30 0 -35 22 -30 127 l5 98 62 99 c78 123 106 196 98 248
-9 50 -29 70 -69 66 -28 -3 -41 -18 -128 -147 -88 -130 -102 -157 -139 -270
-28 -87 -72 -185 -141 -315 -69 -131 -132 -271 -203 -452 -101 -258 -104 -265
-210 -421 -163 -237 -175 -252 -525 -633 -296 -322 -346 -381 -567 -677 -196
-261 -268 -349 -371 -453 -229 -229 -376 -444 -418 -610 l-17 -65 36 -75 c59
-123 125 -198 388 -440 137 -127 249 -235 249 -239 0 -5 -7 -14 -15 -21 -8 -7
-15 -18 -15 -24 0 -7 98 -129 217 -273 178 -214 232 -285 293 -392 l75 -131
435 -347 c239 -192 441 -355 448 -364 19 -21 123 -255 195 -434 213 -536 253
-759 228 -1290 -17 -349 -62 -778 -125 -1193 l-23 -152 2297 0 2297 0 7 83
c37 451 113 955 186 1233 68 259 269 668 582 1187 l113 186 390 327 c253 212
440 360 533 422 126 84 143 99 151 131 6 20 46 176 90 347 49 189 110 396 156
525 50 141 83 254 97 331 21 114 21 118 3 138 -18 20 -17 24 24 173 24 83 43
161 43 172 0 25 -39 271 -45 282 -116 218 -234 398 -423 649 l-212 281 -679
672 -680 673 -76 133 c-42 73 -94 159 -116 191 -22 34 -42 78 -46 104 -4 25
-14 61 -22 80 -16 39 -49 236 -59 355 -3 44 -13 96 -21 115 -149 353 -154 369
-162 490 -6 91 -12 124 -31 160 -56 110 -147 223 -201 250 -46 24 -39 24 -68
4z"/>
</g>
</svg>
