<?xml version="1.0" standalone="no"?>
<!DOCTYPE svg PUBLIC "-//W3C//DTD SVG 20010904//EN"
 "http://www.w3.org/TR/2001/REC-SVG-20010904/DTD/svg10.dtd">
<svg version="1.0" xmlns="http://www.w3.org/2000/svg"
 width="1280.000000pt" height="1280.000000pt" viewBox="0 0 1280.000000 1280.000000"
 preserveAspectRatio="xMidYMid meet">
<g transform="translate(0.000000,1280.000000) scale(0.100000,-0.100000)"
fill="#000000" stroke="none">
<path d="M6675 12380 c-159 -32 -302 -141 -374 -284 -109 -217 -70 -469 98
-637 210 -210 542 -213 750 -7 171 168 214 417 110 635 -42 89 -149 197 -238
242 -104 53 -237 72 -346 51z"/>
<path d="M7715 11104 c-45 -24 -104 -84 -128 -129 -16 -32 -21 -64 -25 -155
-7 -199 21 -270 136 -336 26 -15 75 -51 109 -81 74 -65 92 -104 135 -308 25
-115 31 -172 35 -320 8 -260 -30 -765 -64 -845 -8 -19 -36 -55 -64 -78 -37
-33 -78 -92 -160 -229 -61 -102 -122 -216 -136 -252 -32 -86 -52 -106 -149
-151 -44 -21 -106 -60 -138 -87 -126 -108 -260 -292 -292 -402 -24 -82 -40
-108 -75 -120 -79 -27 -119 -2 -119 76 0 56 15 87 51 100 35 14 49 47 49 118
0 66 -13 101 -50 140 -37 38 -50 74 -50 136 0 44 -3 51 -25 59 -17 6 -25 17
-25 33 0 34 -41 91 -68 95 -12 2 -37 -6 -56 -17 -45 -28 -69 -26 -135 11 -51
30 -63 33 -137 32 -52 -1 -92 -7 -115 -18 -55 -26 -227 -198 -250 -251 -24
-55 -45 -58 -111 -16 -79 50 -90 75 -108 241 -11 100 -35 165 -88 242 -45 65
-77 93 -122 107 -41 12 -45 20 -41 71 3 33 21 51 111 118 41 31 135 108 208
171 174 152 225 185 347 222 64 20 152 59 245 109 152 82 237 114 277 104 16
-4 37 -29 65 -76 48 -81 75 -99 112 -74 39 25 42 59 12 132 -32 79 -32 85 0
115 48 45 106 142 111 186 4 33 -1 54 -30 111 -44 85 -99 173 -121 191 -12 10
-22 11 -43 2 -32 -12 -101 0 -114 21 -5 7 -14 31 -19 53 -14 53 -24 69 -44 73
-46 9 -57 -42 -30 -133 21 -73 8 -114 -64 -212 -32 -43 -74 -103 -94 -133 -73
-113 -124 -137 -414 -195 -235 -48 -407 -101 -559 -175 -201 -97 -383 -239
-425 -331 -33 -74 -21 -209 46 -524 64 -296 101 -393 311 -808 l156 -308 -2
-171 c-1 -104 3 -184 9 -204 7 -19 41 -71 77 -117 36 -45 78 -109 93 -142 29
-64 125 -467 161 -676 33 -191 24 -324 -34 -550 -26 -96 -60 -215 -78 -265
-17 -49 -56 -174 -85 -279 -71 -249 -91 -289 -169 -336 -71 -43 -87 -76 -74
-154 24 -148 7 -220 -111 -465 -49 -102 -99 -220 -110 -263 -12 -43 -28 -94
-36 -113 -29 -70 -46 -231 -39 -370 l7 -131 -43 -29 c-70 -47 -84 -87 -84
-233 l0 -124 -68 -27 c-37 -16 -74 -34 -82 -40 -35 -29 -147 -204 -170 -264
-13 -35 -31 -103 -40 -152 -12 -65 -31 -119 -70 -199 -29 -60 -70 -148 -90
-195 -52 -120 -99 -195 -171 -270 -41 -44 -66 -78 -73 -105 -42 -159 -64 -267
-63 -310 1 -54 32 -167 63 -227 45 -89 124 -148 198 -148 64 0 80 39 100 239
15 145 23 167 96 277 36 53 69 113 75 134 6 21 14 92 18 157 10 145 7 141 175
294 192 176 317 301 343 341 28 44 59 68 184 143 52 31 119 75 148 96 94 71
432 516 543 714 47 85 182 286 207 309 26 23 25 24 43 -99 22 -158 21 -162
-48 -262 -34 -49 -65 -101 -68 -115 -10 -41 24 -58 115 -58 41 0 82 -5 90 -10
12 -7 15 -31 15 -107 0 -54 9 -153 20 -220 l19 -122 -23 -25 c-13 -14 -58 -39
-100 -56 -271 -111 -351 -171 -516 -386 -120 -155 -320 -343 -411 -386 -34
-16 -135 -47 -225 -69 -102 -25 -192 -55 -239 -77 -64 -32 -78 -43 -98 -82
-17 -33 -22 -56 -18 -85 5 -41 30 -69 150 -168 25 -21 49 -50 52 -64 10 -40
-22 -128 -87 -239 -59 -101 -67 -131 -49 -179 8 -20 4 -54 -16 -140 -31 -137
-28 -165 19 -165 38 0 168 68 215 113 53 50 75 97 161 341 76 213 85 232 137
296 70 84 113 121 256 213 277 181 536 319 965 513 356 161 466 217 492 250
18 23 21 41 21 118 1 151 20 225 113 443 152 356 164 418 151 773 -5 129 -9
422 -9 650 -1 307 -5 463 -18 600 -30 323 -36 362 -59 387 l-21 23 17 182 c9
101 30 302 47 448 45 401 47 428 59 675 16 340 22 376 72 491 l43 99 -3 238
-4 238 49 47 c27 26 88 82 135 125 94 84 259 282 344 412 68 104 96 176 139
354 46 184 61 218 133 294 33 34 65 73 72 86 37 71 32 249 -16 591 -22 158
-32 198 -103 411 -90 268 -121 336 -195 428 -76 95 -80 105 -62 143 28 56 16
95 -59 183 -85 102 -90 123 -35 163 47 35 93 212 58 225 -16 5 -57 -15 -111
-54 -69 -50 -82 -37 -47 51 37 93 20 115 -44 59 -20 -17 -41 -29 -47 -27 -6 2
-19 24 -28 48 -19 50 -33 57 -76 34z"/>
</g>
</svg>
